<svg width="12" height="7" viewBox="0 0 12 7" fill="none" xmlns="http://www.w3.org/2000/svg">
<path d="M1.71278 6.29196L5.59278 2.41196L9.47278 6.29196C9.56537 6.38455 9.67528 6.45798 9.79624 6.50809C9.9172 6.55819 10.0469 6.58398 10.1778 6.58398C10.3087 6.58398 10.4384 6.55819 10.5593 6.50809C10.6803 6.45799 10.7902 6.38455 10.8828 6.29196C10.9754 6.19938 11.0488 6.08947 11.0989 5.96851C11.149 5.84754 11.1748 5.71789 11.1748 5.58696C11.1748 5.45603 11.149 5.32638 11.0989 5.20542C11.0488 5.08446 10.9754 4.97455 10.8828 4.88196L6.29278 0.291963C5.90278 -0.0980368 5.27278 -0.0980368 4.88278 0.291963L0.292785 4.88196C0.200081 4.97448 0.126534 5.08437 0.0763522 5.20534C0.0261708 5.32631 0.00034056 5.45599 0.000340549 5.58696C0.000340537 5.71793 0.0261708 5.84761 0.0763522 5.96859C0.126534 6.08956 0.200081 6.19945 0.292785 6.29196C0.682785 6.67196 1.32278 6.68196 1.71278 6.29196Z" fill="#757F93"/>
</svg>
