<svg width="12" height="8" viewBox="0 0 12 8" fill="none" xmlns="http://www.w3.org/2000/svg">
<path d="M10.2876 0.999754L6.40755 4.87975L2.52755 0.999754C2.43497 0.907172 2.32506 0.833732 2.20409 0.783628C2.08313 0.733523 1.95348 0.707733 1.82255 0.707733C1.69162 0.707733 1.56197 0.733523 1.44101 0.783628C1.32004 0.833732 1.21013 0.907172 1.11755 0.999754C1.02497 1.09234 0.95153 1.20225 0.901425 1.32321C0.85132 1.44417 0.825531 1.57382 0.825531 1.70475C0.825531 1.83568 0.85132 1.96533 0.901425 2.0863C0.95153 2.20726 1.02497 2.31717 1.11755 2.40975L5.70755 6.99975C6.09755 7.38975 6.72755 7.38975 7.11755 6.99975L11.7076 2.40975C11.8003 2.31724 11.8738 2.20735 11.924 2.08638C11.9742 1.9654 12 1.83572 12 1.70475C12 1.57379 11.9742 1.4441 11.924 1.32313C11.8738 1.20216 11.8003 1.09227 11.7076 0.999754C11.3176 0.619754 10.6776 0.609754 10.2876 0.999754Z" fill="#757F93"/>
</svg>
