<svg width="40" height="40" viewBox="0 0 40 40" fill="none" xmlns="http://www.w3.org/2000/svg">
  <g>
    <path d="M15.3 30.9C6.79999 30.9 -0.100006 24 -0.100006 15.5C-0.100006 7 6.79999 0 15.3 0C23.8 0 30.8 7 30.8 15.5C30.8 16.7 30.7 17.9 30.4 19.1C30.3 19.6 29.7 20 29.2 19.8C28.7 19.7 28.3 19.1 28.5 18.6C28.7 17.6 28.9 16.6 28.9 15.5C28.9 8.1 22.9 2 15.4 2C7.89999 2 1.89999 8.1 1.89999 15.5C1.89999 22.9 7.89999 29 15.4 29C16.5 29 17.5 28.9 18.6 28.6C19.1 28.5 19.7 28.8 19.8 29.3C19.9 29.8 19.6 30.4 19.1 30.5C17.8 30.8 16.6 30.9 15.3 30.9Z" />
    <path d="M36.4 40C35.5 40 34.6 39.6 33.9 39L22.9 28C22.5 27.6 22.5 27 22.9 26.6C23.3 26.2 23.9 26.2 24.3 26.6L35.3 37.6C35.9 38.2 36.9 38.2 37.4 37.6C38 37 38 36 37.4 35.5L26.4 24.5C26 24.1 26 23.5 26.4 23.1C26.8 22.7 27.4 22.7 27.8 23.1L38.8 34.1C40.2 35.5 40.2 37.7 38.8 39.1C38.2 39.6 37.3 40 36.4 40Z" />
    <path d="M15.3 27C9 27 3.8 21.8 3.8 15.5C3.8 9.2 9 4 15.3 4C21.6 4 26.8 9.2 26.8 15.5C26.8 21.8 21.7 27 15.3 27ZM15.3 6C10.1 6 5.8 10.3 5.8 15.5C5.8 20.7 10.1 25 15.3 25C20.5 25 24.8 20.7 24.8 15.5C24.8 10.3 20.6 6 15.3 6Z" />
  </g>
</svg>
