<svg width="29" height="29" viewBox="0 0 29 29" fill="none" xmlns="http://www.w3.org/2000/svg">
  <g>
    <path d="M11.0925 22.4025C4.93001 22.4025 -0.0724945 17.4 -0.0724945 11.2375C-0.0724945 5.075 4.93001 0 11.0925 0C17.255 0 22.33 5.075 22.33 11.2375C22.33 12.1075 22.2575 12.9775 22.04 13.8475C21.9675 14.21 21.5325 14.5 21.17 14.355C20.8075 14.2825 20.5175 13.8475 20.6625 13.485C20.8075 12.76 20.9525 12.035 20.9525 11.2375C20.9525 5.8725 16.6025 1.45 11.165 1.45C5.72751 1.45 1.37751 5.8725 1.37751 11.2375C1.37751 16.6025 5.72751 21.025 11.165 21.025C11.9625 21.025 12.6875 20.9525 13.485 20.735C13.8475 20.6625 14.2825 20.88 14.355 21.2425C14.4275 21.605 14.21 22.04 13.8475 22.1125C12.905 22.33 12.035 22.4025 11.0925 22.4025Z" />
    <path d="M26.39 29C25.7375 29 25.085 28.71 24.5775 28.275L16.6025 20.3C16.3125 20.01 16.3125 19.575 16.6025 19.285C16.8925 18.995 17.3275 18.995 17.6175 19.285L25.5925 27.26C26.0275 27.695 26.7525 27.695 27.115 27.26C27.55 26.825 27.55 26.1 27.115 25.7375L19.14 17.7625C18.85 17.4725 18.85 17.0375 19.14 16.7475C19.43 16.4575 19.865 16.4575 20.155 16.7475L28.13 24.7225C29.145 25.7375 29.145 27.3325 28.13 28.3475C27.695 28.71 27.0425 29 26.39 29Z" />
    <path d="M11.0925 19.575C6.525 19.575 2.755 15.805 2.755 11.2375C2.755 6.66999 6.525 2.89999 11.0925 2.89999C15.66 2.89999 19.43 6.66999 19.43 11.2375C19.43 15.805 15.7325 19.575 11.0925 19.575ZM11.0925 4.34999C7.32251 4.34999 4.20501 7.46749 4.20501 11.2375C4.20501 15.0075 7.32251 18.125 11.0925 18.125C14.8625 18.125 17.98 15.0075 17.98 11.2375C17.98 7.46749 14.935 4.34999 11.0925 4.34999Z" />
  </g>
</svg>
